<svg xmlns="http://www.w3.org/2000/svg" width="30" height="20" viewBox="0 0 30 20">
    <g fill="none" fill-rule="nonzero">
        <path fill="#2AA0D0" d="M1.25 0h27.5C29.438 0 30 .53 30 1.176v17.648C30 19.47 29.437 20 28.75 20H1.25C.562 20 0 19.47 0 18.824V1.176C0 .53.563 0 1.25 0z"/>
        <path fill="#2AA0D0" d="M20.625 7.647h-3.75c-.156 0-.313.118-.313.265 0-.147-.156-.265-.312-.265h-1.813c-.124 0-.25.059-.28.177l-1 2.352-1.25-2.382c-.063-.088-.157-.176-.282-.176H10c-.188 0-.313.117-.313.294v2.764L8.313 7.794c-.063-.118-.157-.176-.282-.176H6.375c-.125 0-.219.058-.281.176l-2.157 4.412a.33.33 0 0 0 .032.294c.062.088.156.147.25.147h1.343c.125 0 .25-.059.282-.176l.468-1h1.72l.437 1c.062.117.156.176.281.176h2.5c.188 0 .313-.118.313-.294v-1.677l.78 1.795c.063.117.157.176.282.176h.969c.125 0 .25-.059.281-.176l.813-1.824v1.706c0 .176.124.294.312.294h1.25c.156 0 .313-.118.313-.265 0 .147.156.265.312.265h3.75c.188 0 .313-.118.313-.294v-.882c0-.177-.125-.295-.313-.295h-2.188v-.294h2.125c.188 0 .313-.117.313-.294v-.882c0-.177-.125-.294-.313-.294h-2.125v-.294h2.188c.188 0 .313-.118.313-.294V7.94c0-.147-.157-.294-.313-.294zM6.906 10l.282-.588.28.588h-.562z"/>
        <path fill="#2AA0D0" d="M25.844 11.441l-1.25-1.265 1.25-1.264a.26.26 0 0 0 .093-.206V7.94a.26.26 0 0 0-.093-.206.292.292 0 0 0-.219-.088h-.844a.368.368 0 0 0-.25.088l-1.093 1.236-1.125-1.206c-.063-.089-.125-.118-.22-.118h-.843c-.188 0-.313.118-.313.294v4.412c0 .176.125.294.313.294H22c.094 0 .156-.03.219-.088l1.187-1.177 1.188 1.177a.349.349 0 0 0 .218.088h.813c.094 0 .156-.03.219-.088a.26.26 0 0 0 .093-.206v-.706a.26.26 0 0 0-.093-.206zm-4.282-.559v-1.44l.72.705-.72.735z"/>
        <path fill="#FFF" d="M6.438 10.294h1.5l-.75-1.588zM21.25 11.647l1.469-1.47-1.469-1.471z"/>
        <path fill="#FFF" d="M26.094 11.235l-1.063-1.059 1.063-1.058a.677.677 0 0 0 .156-.412V7.94a.565.565 0 0 0-.188-.412.636.636 0 0 0-.437-.176h-.844a.577.577 0 0 0-.468.206l-.875.941-.875-.941a.682.682 0 0 0-.47-.206h-.843a.552.552 0 0 0-.313.088.552.552 0 0 0-.312-.088h-3.75a.552.552 0 0 0-.313.088.552.552 0 0 0-.312-.088h-1.813c-.25 0-.5.147-.593.382l-.75 1.765-.938-1.794c-.094-.206-.312-.324-.562-.324H10c-.344 0-.625.265-.625.589v1.382l-.781-1.618a.619.619 0 0 0-.563-.353H6.375a.619.619 0 0 0-.563.353l-2.156 4.412c-.094.177-.062.382.031.559a.625.625 0 0 0 .532.265h1.343c.25 0 .47-.147.563-.353l.375-.824h1.313l.343.824c.094.235.313.382.594.382h2.5c.344 0 .625-.265.625-.588v-.206l.188.441a.619.619 0 0 0 .562.353h.969c.25 0 .469-.147.594-.353l.187-.441v.147c0 .323.281.588.625.588h1.25c.125 0 .219-.03.313-.088a.552.552 0 0 0 .312.088h3.75c.125 0 .219-.03.313-.088a.552.552 0 0 0 .312.088H22a.713.713 0 0 0 .469-.176l.968-.97.97.97a.657.657 0 0 0 .468.176h.75a.636.636 0 0 0 .438-.176.565.565 0 0 0 .187-.412v-.706a.677.677 0 0 0-.156-.412zm-9.844 1.118H15V9.147l-1.406 3.206h-.969L11.25 9.176v3.177h-2.5l-.5-1.177H6.125l-.531 1.177H4.25L6.406 7.94h1.657l1.968 4.118V7.94h1.594l1.563 2.97 1.25-2.97h1.812v4.412zm4.375-3.53h-2.5v.883h2.438v.882h-2.438v.883h2.5v.882h-3.75V7.94h3.75v.883zm4.25 3.53l-1.438-1.412L22 12.353h-.75V7.94h.844l1.343 1.47 1.344-1.47h.844v.765l-1.469 1.47 1.469 1.471v.706h-.75z"/>
        <path fill="#FFF" d="M1.25 20h.563L30 1.706v-.53C30 .53 29.437 0 28.75 0H1.25C.562 0 0 .53 0 1.176v17.648C0 19.47.563 20 1.25 20z" opacity=".05"/>
    </g>
</svg>
