<svg xmlns="http://www.w3.org/2000/svg" width="115" height="20" viewBox="0 0 115 20">
    <g fill="#263238" fill-opacity=".86" fill-rule="evenodd">
        <text font-family="NunitoSans-Bold, Nunito Sans" font-size="16" font-weight="bold">
            <tspan x="25.984" y="16">APPLE PAY</tspan>
        </text>
        <path d="M17 14.603c-.305.95-.793 1.96-1.501 3.005-1.05 1.575-2.1 2.356-3.136 2.356-.415 0-.977-.132-1.709-.385-.72-.264-1.342-.384-1.843-.384-.488 0-1.074.132-1.733.396-.671.277-1.208.409-1.61.409-1.258 0-2.466-1.046-3.674-3.113C.61 14.82 0 12.812 0 10.841c0-1.839.464-3.329 1.379-4.495.915-1.154 2.062-1.73 3.466-1.73.598 0 1.306.12 2.16.36.842.24 1.403.36 1.684.36.354 0 .94-.132 1.745-.408.806-.265 1.514-.409 2.112-.409.976 0 1.842.265 2.599.781.427.289.854.698 1.27 1.202-.635.53-1.1.998-1.392 1.419a4.228 4.228 0 0 0-.793 2.488c0 .985.28 1.887.842 2.68.561.793 1.208 1.298 1.928 1.514zM12.411.505c0 .493-.122 1.045-.354 1.634a4.929 4.929 0 0 1-1.135 1.66c-.439.432-.878.72-1.318.864-.28.085-.695.157-1.269.205.025-1.19.342-2.224.952-3.09C9.897.914 10.922.326 12.338 0c.025.108.049.192.061.264 0 .085.012.157.012.24z"/>
    </g>
</svg>
