<svg xmlns="http://www.w3.org/2000/svg" width="30" height="30" viewBox="0 0 30 30">
    <path fill="#78909C" fill-rule="evenodd" d="M4.11 29.322a.13.13 0 0 0 .025.002.1.1 0 0 1-.022-.003H4.11zm-.323-.186zm0 0zM29.537 5.82c0 .306-.119.573-.357.803-.238.23-.519.344-.843.344h-.649V27.39c0 .634-.227 1.175-.681 1.623a2.23 2.23 0 0 1-1.622.672H4.88a2.23 2.23 0 0 1-1.622-.672 2.196 2.196 0 0 1-.68-1.623V6.967H1.571c-.324 0-.6-.115-.827-.344a1.125 1.125 0 0 1-.34-.82c0-.317.113-.59.34-.82a1.12 1.12 0 0 1 .827-.344h6.002v-1.9c0-.635.222-1.176.665-1.624.444-.448.99-.672 1.638-.672h10.187a2.23 2.23 0 0 1 1.622.672c.454.448.682.99.682 1.623V4.64h5.969c.346 0 .632.115.86.345.227.23.34.508.34.836zM9.845 2.77v1.87h10.22V2.77H9.844zm15.54 24.62V6.967H4.88V27.39h20.504zm-9.636-16.129c.238.219.357.492.357.82v10.95c0 .327-.113.606-.34.835-.227.23-.498.344-.811.344-.314 0-.584-.114-.811-.344a1.144 1.144 0 0 1-.341-.836V12.08c0-.327.113-.606.34-.835.228-.23.498-.344.812-.344.313 0 .578.12.794.36zm-6.293 0c.238.219.357.492.357.82v10.95c0 .327-.114.606-.341.835a1.12 1.12 0 0 1-.827.344c-.325 0-.6-.114-.828-.344a1.144 1.144 0 0 1-.34-.836V12.08c0-.327.113-.606.34-.835a1.12 1.12 0 0 1 .828-.344c.324 0 .594.12.81.36zm12.555 0c.238.219.357.492.357.82v10.95c0 .327-.114.606-.341.835a1.12 1.12 0 0 1-.827.344c-.325 0-.6-.114-.828-.344a1.144 1.144 0 0 1-.34-.836V12.08c0-.327.113-.606.34-.835a1.12 1.12 0 0 1 .828-.344c.324 0 .594.12.81.36z"/>
</svg>
