<svg xmlns="http://www.w3.org/2000/svg" width="268" height="64" viewBox="0 0 268 64">
    <defs>
        <filter id="a" width="105.4%" height="125%" x="-2.7%" y="-8.9%" filterUnits="objectBoundingBox">
            <feOffset dy="2" in="SourceAlpha" result="shadowOffsetOuter1"/>
            <feGaussianBlur in="shadowOffsetOuter1" result="shadowBlurOuter1" stdDeviation="2"/>
            <feColorMatrix in="shadowBlurOuter1" result="shadowMatrixOuter1" values="0 0 0 0 0 0 0 0 0 0 0 0 0 0 0 0 0 0 0.5 0"/>
            <feMerge>
                <feMergeNode in="shadowMatrixOuter1"/>
                <feMergeNode in="SourceGraphic"/>
            </feMerge>
        </filter>
    </defs>
    <g fill="none" fill-rule="evenodd" filter="url(#a)" transform="translate(4 2)">
        <path fill="#FFF" d="M0 0h260v56H0z"/>
        <text fill="#151A25" font-family="AvenirNext-Medium, Avenir Next" font-size="20" font-weight="400" transform="translate(72 15)">
            <tspan x="24.4" y="20">Facebook</tspan>
        </text>
        <path fill="#3B5998" fill-rule="nonzero" d="M82.568 18.147v3.229h-1.92c-.702 0-1.175.147-1.42.44-.244.294-.366.734-.366 1.321v2.312h3.583l-.477 3.62h-3.106v9.283h-3.743V29.07H72v-3.62h3.119v-2.667c0-1.516.424-2.693 1.272-3.528.848-.836 1.977-1.254 3.388-1.254 1.199 0 2.128.049 2.789.147z"/>
    </g>
</svg>
