<svg xmlns="http://www.w3.org/2000/svg" width="30" height="22" viewBox="0 0 30 22">
    <g fill="none" fill-rule="nonzero">
        <path fill="#4361C3" d="M1.25 0h27.5C29.438 0 30 .53 30 1.176v17.648C30 19.47 29.437 20 28.75 20H1.25C.562 20 0 19.47 0 18.824V1.176C0 .53.563 0 1.25 0z"/>
        <path fill="#FFAF38" d="M18.594 6.25c2.5 0 4.531 2.031 4.531 4.531 0 2.5-2.031 4.531-4.531 4.531a4.535 4.535 0 0 1-4.532-4.53c0-2.5 2.032-4.532 4.532-4.532z"/>
        <path fill="#FFAF38" d="M14.688 8.438h3.125v1h-3.125z"/>
        <path fill="#EB3636" d="M11.406 15.313a4.535 4.535 0 0 1-4.531-4.532c0-2.5 2.031-4.531 4.531-4.531 2.5 0 4.531 2.031 4.531 4.531 0 2.5-2.03 4.531-4.53 4.531z"/>
        <path fill="#FFAF38" d="M14.688 12.813v-.626h4.062v.626h-4.063zm0-4.376h4.062v.626h-4.063v-.626zm3.75 1.876h-4.063v-.626h4.063v.626zm0 1.25h-4.063v-.626h4.063v.626z"/>
        <path fill="#FFF" d="M1.25 21.25h.563L30 1.812V1.25C30 .562 29.437 0 28.75 0H1.25C.562 0 0 .563 0 1.25V20c0 .688.563 1.25 1.25 1.25z" opacity=".05"/>
    </g>
</svg>
