<svg xmlns="http://www.w3.org/2000/svg" width="89" height="20" viewBox="0 0 89 20">
    <g fill="#263238" fill-opacity=".86" fill-rule="evenodd">
        <text font-family="NunitoSans-Bold, Nunito Sans" font-size="16" font-weight="bold">
            <tspan x="25.644" y="16">PAYPAL</tspan>
        </text>
        <path d="M16.907 7.21c.146.67.112 1.44-.045 2.277-.727 3.683-3.179 4.955-6.324 4.955h-.492a.778.778 0 0 0-.761.658l-.045.213-.616 3.861-.022.168c-.079.379-.392.658-.773.658H5.02c-.313 0-.514-.257-.47-.57.202-1.25.393-2.5.594-3.75l.604-3.738c.034-.268.213-.413.482-.413.447 0 .895-.011 1.466 0 .806.011 1.735-.033 2.642-.234 1.209-.268 2.306-.76 3.212-1.607.817-.76 1.366-1.697 1.735-2.746.168-.491.302-.982.392-1.484.022-.134.056-.112.134-.056.616.457.963 1.071 1.097 1.808zm-1.925-3.147c0 .915-.213 1.785-.515 2.633-.582 1.686-1.679 2.891-3.38 3.516-.907.324-1.858.458-2.821.469-.672.011-1.343 0-2.015 0-.727 0-1.186.357-1.32 1.071-.157.848-.773 4.8-.952 5.915-.011.079-.045.112-.134.112H.543a.538.538 0 0 1-.538-.614L2.602.748A.9.9 0 0 1 3.486 0h6.694c.481 0 1.59.212 2.34.502 1.589.614 2.462 1.864 2.462 3.56z"/>
    </g>
</svg>
