<svg xmlns="http://www.w3.org/2000/svg" width="30" height="20" viewBox="0 0 30 20">
    <g fill="none" fill-rule="nonzero">
        <path fill="#F9F9F9" d="M0 5.294h30v9.412H0z"/>
        <path fill="#09599E" d="M1.25 0h27.5C29.438 0 30 .53 30 1.176v4.118H0V1.176C0 .53.563 0 1.25 0z"/>
        <path fill="#E59703" d="M0 14.706h30v4.118C30 19.47 29.437 20 28.75 20H1.25C.562 20 0 19.47 0 18.824v-4.118z"/>
        <path fill="#FFF" d="M1.25 19.97c-.688 0-1.25-.529-1.25-1.176V1.176C0 .53.563 0 1.25 0h27.5C29.438 0 30 .53 30 1.176" opacity=".05"/>
        <path fill="#00589F" d="M11.594 12.47L12.5 7.5h1.438l-.907 4.97zM18.25 7.647a4.188 4.188 0 0 0-1.281-.206c-1.438 0-2.438.677-2.438 1.647 0 .706.719 1.118 1.25 1.353.563.235.75.412.75.618 0 .323-.437.5-.875.5-.562 0-.875-.088-1.344-.265l-.187-.118-.188 1.118c.344.147.97.265 1.594.265 1.5 0 2.5-.677 2.5-1.706 0-.559-.375-1-1.218-1.353-.5-.235-.813-.382-.813-.618 0-.206.25-.44.813-.44.468 0 .812.087 1.062.176l.125.058.25-1.029M21.938 7.53h-1.125c-.344 0-.594.088-.75.411L17.938 12.5h1.5s.25-.618.312-.735h1.844c.031.176.187.735.187.735h1.344l-1.188-4.97zm-1.782 3.176c.125-.294.563-1.382.563-1.382s.125-.295.187-.471l.094.441.344 1.441h-1.188v-.03zM10.375 7.53l-1.406 3.382-.156-.677c-.25-.794-1.094-1.647-2-2.088l1.312 4.324h1.531L11.937 7.5h-1.562"/>
        <path fill="#F9A51A" d="M7.656 7.5H5.344l-.032.118c1.813.411 3 1.411 3.5 2.588l-.5-2.265c-.062-.323-.343-.412-.656-.441"/>
    </g>
</svg>
